<svg id="be3e1a43-0c7b-454d-900a-5620992e061d" xmlns="http://www.w3.org/2000/svg" viewBox="0 0 1500.86 1500.81"><defs><style>.cls-1{fill:#f2f2f2;}.cls-2{fill:#e6e6e6;}.cls-3{fill:#3f3d56;}.cls-4{fill:#fff;}.cls-5{fill:#58b580;}</style></defs><title>Artboard 1</title><rect class="cls-1" x="1363.5" y="1236.52" width="30.16" height="104.4"/><polygon class="cls-1" points="1413.58 1321.28 1340.22 1234.01 1192.98 1235.36 1103.66 1322.36 1105.47 1323.52 1104.83 1323.52 1104.83 1504.47 1413.38 1504.47 1413.38 1323.52 1413.58 1321.28"/><polygon class="cls-2" points="1340.3 1234.2 1248.66 1341.63 1248.66 1504.47 1413.38 1504.47 1413.38 1321.2 1340.3 1234.2"/><rect class="cls-3" x="1314.78" y="1414.42" width="33.64" height="29.73"/><rect class="cls-3" x="1314.78" y="1362.96" width="33.64" height="29.26"/><rect class="cls-4" x="1314.78" y="1414.42" width="33.64" height="29.73"/><rect class="cls-4" x="1314.78" y="1362.96" width="33.64" height="29.26"/><rect class="cls-4" x="1165.29" y="1406.53" width="33.64" height="29.73"/><rect class="cls-4" x="1165.29" y="1355.07" width="33.64" height="29.26"/><rect class="cls-1" x="1125.5" y="1236.52" width="30.16" height="104.4"/><polygon class="cls-1" points="1175.58 1321.28 1102.22 1234.01 954.98 1235.36 865.66 1322.36 867.47 1323.52 866.83 1323.52 866.83 1504.47 1175.38 1504.47 1175.38 1323.52 1175.58 1321.28"/><polygon class="cls-2" points="1102.3 1234.2 1010.66 1341.63 1010.66 1504.47 1175.38 1504.47 1175.38 1321.2 1102.3 1234.2"/><rect class="cls-3" x="1076.78" y="1414.42" width="33.64" height="29.73"/><rect class="cls-3" x="1076.78" y="1362.96" width="33.64" height="29.26"/><rect class="cls-4" x="1076.78" y="1414.42" width="33.64" height="29.73"/><rect class="cls-4" x="1076.78" y="1362.96" width="33.64" height="29.26"/><rect class="cls-4" x="418.98" y="1403.53" width="33.64" height="29.73"/><rect class="cls-4" x="418.98" y="1352.06" width="33.64" height="29.26"/><rect class="cls-1" x="363.36" y="1145.42" width="40.3" height="139.5"/><polygon class="cls-1" points="430.27 1258.67 332.26 1142.07 135.51 1143.87 16.16 1260.12 18.57 1261.67 17.71 1261.67 17.71 1503.47 430.01 1503.47 430.01 1261.67 430.27 1258.67"/><polygon class="cls-1" points="673.5 1283.47 591.5 1223.47 430.27 1223.47 362.86 1286.47 364.67 1356.74 364.02 1356.74 364.02 1503.98 672.58 1503.98 672.58 1356.74 673.5 1283.47"/><polygon class="cls-2" points="332.36 1140.32 209.91 1283.88 209.91 1501.47 430.01 1501.47 430.01 1256.57 332.36 1140.32"/><rect class="cls-3" x="298.26" y="1381.14" width="44.95" height="39.73"/><rect class="cls-3" x="298.26" y="1312.37" width="44.95" height="39.1"/><rect class="cls-4" x="298.26" y="1383.14" width="44.95" height="39.73"/><rect class="cls-4" x="298.26" y="1314.37" width="44.95" height="39.1"/><rect class="cls-4" x="98.5" y="1372.6" width="44.95" height="39.73"/><rect class="cls-4" x="98.5" y="1303.83" width="44.95" height="39.1"/><ellipse class="cls-3" cx="135.08" cy="1406.43" rx="29.1" ry="59.37"/><path class="cls-5" d="M137.77,1503.62c-11.66-69.93-.12-139.6,0-140.3l2.26.39c-.11.69-11.58,70,0,139.53Z"/><rect class="cls-5" x="133.16" y="1400.56" width="29.84" height="2.3" transform="translate(-643.62 235.55) rotate(-28.14)"/><rect class="cls-5" x="119.16" y="1393.85" width="2.3" height="29.84" transform="translate(-1178.5 850.04) rotate(-61.84)"/><ellipse class="cls-5" cx="65.16" cy="1314.86" rx="56.91" ry="116.13"/><path class="cls-3" d="M71.5,1504.77c-22.76-136.59-.23-272.68,0-274l2.27.39c-.23,1.35-22.7,137.07,0,273.27Z"/><polygon class="cls-1" points="912.01 1356.74 814.68 1288.72 691.62 1288.72 602.3 1355.8 604.1 1356.74 603.46 1356.74 603.46 1503.98 912.01 1503.98 912.01 1356.74 912.01 1356.74"/><rect class="cls-3" x="61.41" y="1304.49" width="58.37" height="2.3" transform="translate(-605.1 197.08) rotate(-28.14)"/><rect class="cls-3" x="35.13" y="1290.25" width="2.3" height="58.37" transform="translate(-1144.13 728.78) rotate(-61.84)"/><ellipse class="cls-5" cx="199.96" cy="1242.97" rx="77.88" ry="158.91"/><path class="cls-3" d="M209.05,1502.77c-31.14-186.84-.31-373,0-374.85l2.27.38c-.31,1.85-31.07,187.64,0,374.09Z"/><rect class="cls-3" x="194.83" y="1231.19" width="79.87" height="2.3" transform="translate(-553.48 256.41) rotate(-28.14)"/><rect class="cls-3" x="159.28" y="1211.29" width="2.3" height="79.87" transform="translate(-1018.43 802.24) rotate(-61.84)"/><polygon class="cls-2" points="912.33 1357.37 912.33 1501.99 692.23 1501.99 692.23 1373.5 814.68 1288.72 912.33 1357.37"/><ellipse class="cls-3" cx="1362.54" cy="1407.43" rx="29.1" ry="59.37"/><path class="cls-5" d="M1359.85,1504.62c11.66-69.93.12-139.6,0-140.29l-2.27.38c.12.69,11.59,70,0,139.53Z"/><rect class="cls-5" x="1348.38" y="1387.8" width="2.3" height="29.84" transform="translate(-523.87 1931.12) rotate(-61.86)"/><rect class="cls-5" x="1362.39" y="1408.62" width="29.84" height="2.3" transform="translate(-502.27 816.8) rotate(-28.16)"/><ellipse class="cls-5" cx="1432.46" cy="1315.86" rx="56.91" ry="116.13"/><path class="cls-3" d="M1426.12,1505.77c22.76-136.59.23-272.67,0-274l-2.27.38c.23,1.36,22.7,137.08,0,273.27Z"/><rect class="cls-3" x="1405.87" y="1277.46" width="2.3" height="58.37" transform="translate(-408.78 1931.05) rotate(-61.86)"/><rect class="cls-3" x="1432.16" y="1319.29" width="58.37" height="2.3" transform="translate(-450.17 845.87) rotate(-28.16)"/><ellipse class="cls-5" cx="1297.66" cy="1245.97" rx="77.88" ry="158.91"/><path class="cls-3" d="M1288.56,1505.77c31.14-186.84.32-373,0-374.85l-2.26.38c.31,1.86,31.07,187.65,0,374.09Z"/><rect class="cls-3" x="1261.7" y="1193.41" width="2.3" height="79.87" transform="translate(-420.32 1765.2) rotate(-61.86)"/><rect class="cls-3" x="1297.25" y="1251.08" width="79.87" height="2.3" transform="translate(-432.66 779.19) rotate(-28.16)"/><path class="cls-3" d="M1081.11,1156.43l9.21-7.37c-7.15-.78-10.09,3.12-11.29,6.2-5.59-2.32-11.67.72-11.67.72l18.42,6.69A13.91,13.91,0,0,0,1081.11,1156.43Z"/><path class="cls-3" d="M347.81,1090.42l9.21-7.36c-7.15-.79-10.09,3.11-11.3,6.2-5.58-2.32-11.66.72-11.66.72l18.41,6.69A13.91,13.91,0,0,0,347.81,1090.42Z"/><path class="cls-3" d="M1223.11,1062.43l9.21-7.37c-7.15-.78-10.09,3.12-11.29,6.2-5.59-2.32-11.67.72-11.67.72l18.42,6.69A13.91,13.91,0,0,0,1223.11,1062.43Z"/><polygon class="cls-2" points="673.5 1283.47 673.5 1501.99 504.5 1501.99 505.5 1288.86 591.5 1223.47 673.5 1283.47"/><path class="cls-3" d="M1241.7,1492a14,14,0,0,0-7,1.87,15,15,0,0,0-25,11.13h46A14,14,0,0,0,1241.7,1492Z"/><path class="cls-3" d="M266.4,1491a13.87,13.87,0,0,0-7,1.87,15,15,0,0,0-25,11.13h46A14,14,0,0,0,266.4,1491Z"/><polygon class="cls-3" points="454.97 1458.18 322.4 1458.18 322.4 1462.46 343.07 1462.46 343.07 1503.09 347.35 1503.09 347.35 1462.46 427.88 1462.46 427.88 1503.09 432.15 1503.09 432.15 1462.46 454.97 1462.46 454.97 1458.18"/><rect class="cls-3" x="322.66" y="1445.39" width="132.57" height="4.28"/><rect class="cls-3" x="322.66" y="1434.7" width="132.57" height="4.28"/><rect class="cls-3" x="322.66" y="1424.01" width="132.57" height="4.28"/><polygon class="cls-3" points="1170.27 1459.19 1037.7 1459.19 1037.7 1463.46 1058.38 1463.46 1058.38 1504.09 1062.65 1504.09 1062.65 1463.46 1143.18 1463.46 1143.18 1504.09 1147.45 1504.09 1147.45 1463.46 1170.27 1463.46 1170.27 1459.19"/><rect class="cls-3" x="1037.96" y="1446.39" width="132.57" height="4.28"/><rect class="cls-3" x="1037.96" y="1435.7" width="132.57" height="4.28"/><rect class="cls-3" x="1037.96" y="1425.01" width="132.57" height="4.28"/><rect class="cls-4" x="572.59" y="1304.7" width="44.95" height="39.1"/><rect class="cls-4" x="572.59" y="1383.98" width="44.95" height="39.1"/><rect class="cls-4" x="743.53" y="1398.84" width="44.95" height="39.1"/><rect class="cls-4" x="829.26" y="1398.84" width="44.95" height="39.1"/><path class="cls-3" d="M698.25,1177.5l9.21-7.36c-7.15-.79-10.09,3.11-11.29,6.19-5.59-2.32-11.67.72-11.67.72l18.42,6.69A13.91,13.91,0,0,0,698.25,1177.5Z"/></svg>